<?xml version="1.0" encoding="utf-8"?>
<!-- Generator: Adobe Illustrator 22.1.0, SVG Export Plug-In . SVG Version: 6.00 Build 0)  -->
<svg version="1.1" id="icon" xmlns="http://www.w3.org/2000/svg" xmlns:xlink="http://www.w3.org/1999/xlink" x="0px" y="0px"
	 viewBox="0 0 256 256" style="enable-background:new 0 0 256 256;" xml:space="preserve">
<style type="text/css">
	.st0{fill:#FFC200;}
	.st1{fill:#B2B2B2;}
	.st2{fill:#D4D4D4;}
	.st3{fill:#F5F5F5;}
	.st4{fill:#00233A;}
</style>
<rect class="st0" width="256" height="256"/>
<g>
	<path class="st1" d="M198.4,221h-108c-0.7,0-1.3-0.6-1.3-1.3V79.2c0-0.7,0.6-1.3,1.3-1.3h108c0.7,0,1.3,0.6,1.3,1.3v140.5
		C199.7,220.4,199.1,221,198.4,221z"/>
	<path class="st2" d="M187.9,206.2h-108c-0.7,0-1.3-0.6-1.3-1.3V64.4c0-0.7,0.6-1.3,1.3-1.3h108c0.7,0,1.3,0.6,1.3,1.3v140.5
		C189.3,205.6,188.7,206.2,187.9,206.2z"/>
	<path class="st3" d="M177.5,191.5h-108c-0.7,0-1.3-0.6-1.3-1.3V49.6c0-0.7,0.6-1.3,1.3-1.3h108c0.7,0,1.3,0.6,1.3,1.3v140.5
		C178.8,190.9,178.2,191.5,177.5,191.5z"/>
	<path class="st4" d="M161.6,161.4h-75c-1.4,0-2.5-1.1-2.5-2.5s1.1-2.5,2.5-2.5h75c1.4,0,2.5,1.1,2.5,2.5S163,161.4,161.6,161.4z"/>
	<path class="st4" d="M131.3,170.9H86.6c-1.4,0-2.5-1.1-2.5-2.5c0-1.4,1.1-2.5,2.5-2.5h44.7c1.4,0,2.5,1.1,2.5,2.5
		C133.8,169.8,132.7,170.9,131.3,170.9z"/>
	<g>
		<circle class="st4" cx="89.7" cy="95.3" r="4.9"/>
		<circle class="st4" cx="89.7" cy="114.9" r="4.9"/>
		<circle class="st4" cx="89.7" cy="134.5" r="4.9"/>
	</g>
	<path class="st4" d="M163.4,134.5c0-2.7-2.2-4.9-4.9-4.9h-49.1c-2.7,0-4.9,2.2-4.9,4.9c0,2.7,2.2,4.9,4.9,4.9h14.7h34.4
		c0.2,0,0.3,0,0.5,0c0.2,0,0.4-0.1,0.6-0.1c0.9-0.2,1.8-0.7,2.4-1.3C162.8,137.1,163.4,135.9,163.4,134.5z"/>
	<path class="st4" d="M163.4,114.9c0-2.7-2.2-4.9-4.9-4.9h-49.1c-2.7,0-4.9,2.2-4.9,4.9c0,2.7,2.2,4.9,4.9,4.9h14.7h34.4
		c0.2,0,0.3,0,0.5,0c1.2-0.1,2.2-0.6,3-1.4C162.8,117.5,163.4,116.3,163.4,114.9z"/>
	<path class="st4" d="M158.5,90.4h-49.1c-2.7,0-4.9,2.2-4.9,4.9s2.2,4.9,4.9,4.9h14.7h34.4c0.2,0,0.3,0,0.5,0
		c2.5-0.3,4.4-2.3,4.4-4.9C163.4,92.6,161.2,90.4,158.5,90.4z"/>
	<path class="st4" d="M92.3,55.2c0-1.1-0.1-2.2-0.3-3.3l6-3.6l-6-10.5l-6,3.5c-1.7-1.4-3.6-2.5-5.7-3.3V31H68.1v7.1
		c-2.1,0.7-4,1.9-5.7,3.3l-6-3.5l-6,10.5l6,3.6c-0.4,2.2-0.4,4.4,0,6.6l-6,3.6l6,10.5l6-3.5c1.7,1.4,3.6,2.5,5.7,3.3v7.1h12.1v-7.1
		c2.1-0.7,4-1.9,5.7-3.3l6,3.5l6-10.5l-6-3.6C92.2,57.4,92.3,56.3,92.3,55.2z M74.2,61.2c-3.3,0-6-2.7-6-6s2.7-6,6-6s6,2.7,6,6
		S77.5,61.2,74.2,61.2z"/>
</g>
</svg>
